# xmcd
#
# Track frame offsets:
# 150
# 13682
# 24565
# 35072
# 46122
# 58675
# 70438
# 84445
# 101171
# 111922
#
# Disc length: 1664 seconds
#
# Revision: 0
# Processed by: cddbd v1.5.2PL0 Copyright (c) Steve Scherf et al.
# Submitted via: Audion 3.0.2 (http://www.panic.com/audion/)
#
DISCID=84067e0a
DTITLE=Max Capote - Aperitivo de moda
DYEAR=1900
DGENRE=
TTITLE0=Es verdad
TTITLE1=Sin mentirte
TTITLE2=It was me
TTITLE3=Desafinado
TTITLE4=Ana
TTITLE5=Cuando voy al cielo
TTITLE6=Voy a pescar
TTITLE7=Solo quisiera
TTITLE8=Si nena
TTITLE9=Soy un monstruo
EXTD=
EXTT0=
EXTT1=
EXTT2=
EXTT3=
EXTT4=
EXTT5=
EXTT6=
EXTT7=
EXTT8=
EXTT9=
PLAYORDER=
